<svg width="600" height="233" viewBox="0 0 600 233" fill="none" xmlns="http://www.w3.org/2000/svg">
<g clip-path="url(#clip0_3689_780)">
<path d="M67.676 195.927V221.968H83.4841V224.014H65.509V195.927H67.676Z" fill="white"/>
<path d="M86.082 214.102C86.0464 212.762 86.2815 211.429 86.773 210.182C87.2645 208.935 88.0025 207.8 88.9428 206.845C89.8831 205.89 91.0064 205.134 92.2454 204.623C93.4845 204.112 94.8138 203.856 96.154 203.871C101.732 203.871 106.708 207.283 105.945 215.025H88.09C88.2082 217.06 89.1182 218.968 90.6254 220.34C92.1325 221.713 94.117 222.44 96.154 222.368C98.763 222.368 101.811 221.325 103.297 219.359L104.697 220.482C103.646 221.713 102.333 222.694 100.855 223.353C99.3762 224.013 97.7694 224.334 96.151 224.294C94.8047 224.344 93.4626 224.114 92.21 223.617C90.9574 223.121 89.8216 222.37 88.8746 221.412C87.9276 220.454 87.1901 219.309 86.7088 218.051C86.2276 216.792 86.0131 215.448 86.079 214.102H86.082ZM104.182 213.302C104.143 208.408 100.932 205.681 96.157 205.681C94.0827 205.642 92.0759 206.419 90.568 207.844C89.0602 209.269 88.1715 211.229 88.093 213.302H104.182Z" fill="white"/>
<path d="M114.72 198.214V204.193H121.463V205.838H114.72V217.914C114.72 220.603 115.283 222.489 118.373 222.489C119.435 222.446 120.475 222.173 121.421 221.689L122.102 223.289C120.95 223.899 119.676 224.241 118.373 224.289C114.16 224.289 112.795 221.801 112.795 217.909V205.838H108.582V204.193H112.795V198.415L114.72 198.214Z" fill="white"/>
<path d="M128.477 195.767V206.039H126.712V195.767H128.477Z" fill="white"/>
<path d="M147.974 207.804C147.133 207.065 146.154 206.5 145.093 206.142C144.032 205.784 142.911 205.639 141.794 205.717C138.705 205.679 135.736 206.84 135.816 209.37C135.898 212.018 139.347 212.539 141.835 212.979C145.365 213.579 150.22 214.179 150.02 218.798C149.899 223.171 145.365 224.335 141.874 224.335C138.383 224.335 134.934 223.012 133.21 220.364L134.654 219.078C135.511 220.174 136.616 221.051 137.879 221.637C139.141 222.223 140.524 222.501 141.915 222.448C144.324 222.448 147.974 221.806 148.095 218.677C148.174 215.829 144.884 215.267 141.635 214.745C137.782 214.102 133.971 213.382 133.935 209.408C133.894 205.517 137.785 203.83 141.797 203.871C144.51 203.755 147.16 204.705 149.18 206.519L147.98 207.804H147.974Z" fill="white"/>
<path d="M183.991 201.345C181.945 198.055 178.655 197.572 175.483 197.533C172.195 197.533 166.977 198.733 166.977 203.233C166.977 206.806 170.83 207.646 175.565 208.533C180.981 209.576 186.597 210.538 186.597 216.597C186.559 222.938 180.179 224.462 175.483 224.462C171.111 224.462 166.134 222.655 163.97 218.362L165.896 217.399C167.62 220.809 172.033 222.499 175.483 222.499C178.933 222.499 184.431 221.535 184.431 216.562C184.472 212.349 179.817 211.426 175.203 210.542C170.067 209.542 164.811 208.495 164.811 203.321C164.692 197.381 170.869 195.535 175.483 195.535C179.496 195.535 182.983 196.178 185.754 200.311L183.991 201.355V201.345Z" fill="white"/>
<path d="M193.409 197.734C193.399 198.147 193.227 198.54 192.931 198.829C192.635 199.118 192.238 199.279 191.824 199.279C191.411 199.279 191.014 199.118 190.718 198.829C190.422 198.54 190.25 198.147 190.24 197.734C190.25 197.321 190.422 196.928 190.718 196.639C191.014 196.35 191.411 196.189 191.824 196.189C192.238 196.189 192.635 196.35 192.931 196.639C193.227 196.928 193.399 197.321 193.409 197.734ZM190.803 204.113V224.013H192.767V204.113H190.803Z" fill="white"/>
<path d="M227.753 224.014V212.138C227.805 211.284 227.678 210.429 227.38 209.628C227.082 208.826 226.619 208.096 226.022 207.484C225.425 206.872 224.706 206.391 223.912 206.073C223.118 205.755 222.267 205.607 221.412 205.638C220.549 205.62 219.691 205.781 218.893 206.111C218.095 206.44 217.374 206.931 216.775 207.553C216.176 208.174 215.712 208.913 215.412 209.723C215.112 210.532 214.982 211.395 215.032 212.257V224.014H213.068V212.257C213.117 211.397 212.987 210.537 212.686 209.73C212.385 208.923 211.921 208.187 211.321 207.568C210.721 206.95 210 206.463 209.203 206.138C208.405 205.813 207.549 205.656 206.688 205.679C202.915 205.679 200.347 208.447 200.347 212.257V224.014H198.383V204.193H200.23L200.268 207.483C200.887 206.321 201.822 205.358 202.965 204.705C204.108 204.052 205.413 203.735 206.728 203.792C209.738 203.792 212.907 205.157 214.071 208.686C214.641 207.213 215.652 205.952 216.967 205.076C218.281 204.2 219.834 203.751 221.413 203.792C222.519 203.745 223.623 203.93 224.655 204.333C225.686 204.737 226.622 205.351 227.402 206.136C228.183 206.921 228.792 207.86 229.19 208.894C229.588 209.927 229.766 211.032 229.713 212.138V224.014H227.753Z" fill="white"/>
<path d="M234.84 232.285V204.193H236.765V208.885C237.594 207.341 238.836 206.058 240.352 205.18C241.869 204.301 243.599 203.861 245.351 203.91C250.728 204.11 254.979 207.723 254.979 214.1C254.979 220.763 250.486 224.372 244.908 224.372C243.217 224.407 241.551 223.963 240.102 223.09C238.654 222.217 237.482 220.951 236.724 219.439V232.285H234.84ZM253.015 214.106C253.015 208.531 249.404 205.806 244.908 205.806C240.294 205.806 236.886 209.297 236.886 214.152C236.838 215.233 237.01 216.312 237.392 217.325C237.774 218.337 238.358 219.261 239.108 220.041C239.858 220.82 240.76 221.439 241.757 221.859C242.754 222.279 243.826 222.492 244.908 222.485C249.408 222.485 253.015 219.676 253.015 214.098V214.106Z" fill="white"/>
<path d="M261.75 195.927V224.014H259.786V195.927H261.75Z" fill="white"/>
<path d="M269.852 197.734C269.842 198.147 269.67 198.54 269.374 198.829C269.078 199.118 268.681 199.279 268.268 199.279C267.854 199.279 267.457 199.118 267.161 198.829C266.865 198.54 266.693 198.147 266.683 197.734C266.693 197.321 266.865 196.928 267.161 196.639C267.457 196.35 267.854 196.189 268.268 196.189C268.681 196.189 269.078 196.35 269.374 196.639C269.67 196.928 269.842 197.321 269.852 197.734ZM267.245 204.113V224.013H269.209V204.113H267.245Z" fill="white"/>
<path d="M276.872 224.014V206.08H272.818V204.353H276.872V202.585C276.872 198.652 278.435 195.804 282.809 195.804C284.233 195.815 285.615 196.294 286.74 197.167L285.778 198.611C284.885 197.979 283.823 197.631 282.73 197.611C280.242 197.611 278.797 199.135 278.797 202.587V204.351H285.337V206.078H278.797V224.012L276.872 224.014Z" fill="white"/>
<path d="M306.877 204.193L294.798 232.285H292.713L296.363 223.777L288.418 204.197H290.547L295.161 215.913L297.487 221.65L299.775 215.872L304.749 204.197L306.877 204.193Z" fill="white"/>
<path d="M338.642 204.193L326.564 232.285H324.479L328.129 223.777L320.184 204.197H322.313L326.926 215.913L329.252 221.65L331.54 215.872L336.514 204.197L338.642 204.193Z" fill="white"/>
<path d="M341.522 214.143C341.522 207.843 346.017 203.83 351.593 203.83C357.169 203.83 361.663 207.843 361.663 214.143C361.676 215.474 361.426 216.794 360.925 218.028C360.425 219.261 359.686 220.383 358.749 221.329C357.813 222.275 356.698 223.026 355.47 223.538C354.241 224.05 352.924 224.314 351.593 224.314C350.262 224.314 348.944 224.05 347.715 223.538C346.487 223.026 345.372 222.275 344.436 221.329C343.499 220.383 342.76 219.261 342.26 218.028C341.759 216.794 341.509 215.474 341.522 214.143ZM359.738 214.143C359.738 209.008 356.088 205.679 351.593 205.679C347.098 205.679 343.449 209.008 343.449 214.143C343.437 215.22 343.639 216.289 344.043 217.287C344.447 218.286 345.045 219.195 345.802 219.961C346.56 220.726 347.462 221.334 348.456 221.749C349.45 222.164 350.516 222.378 351.594 222.378C352.671 222.378 353.737 222.164 354.731 221.749C355.725 221.334 356.627 220.726 357.385 219.961C358.142 219.195 358.74 218.286 359.144 217.287C359.548 216.289 359.75 215.22 359.738 214.143Z" fill="white"/>
<path d="M382.157 224.014V220.443C381.439 221.667 380.405 222.674 379.162 223.359C377.919 224.044 376.515 224.381 375.097 224.335C369.797 224.335 366.149 221.086 366.149 215.588V204.152H368.115V215.552C368.115 220.052 370.884 222.452 375.176 222.415C376.114 222.423 377.043 222.239 377.908 221.876C378.772 221.512 379.553 220.975 380.203 220.299C380.853 219.623 381.357 218.821 381.686 217.943C382.015 217.065 382.162 216.129 382.116 215.192V204.152H384.082V224.014H382.157Z" fill="white"/>
<path d="M391.095 204.193L391.175 207.725C391.796 206.535 392.748 205.551 393.915 204.888C395.082 204.226 396.415 203.915 397.755 203.992C399.255 203.959 400.733 204.363 402.006 205.157L401.125 206.757C400.11 206.141 398.942 205.821 397.755 205.834C396.01 205.846 394.341 206.55 393.114 207.791C391.887 209.033 391.204 210.711 391.213 212.456V224.01H389.249V204.193H391.095Z" fill="white"/>
<path d="M417.93 195.927V208.527C419.53 205.316 422.745 203.871 426.156 203.871C431.693 203.871 436.106 207.562 436.106 214.102C436.106 220.682 431.731 224.335 426.195 224.335C424.523 224.365 422.874 223.945 421.42 223.119C419.966 222.293 418.761 221.092 417.93 219.641V224.014H416.005V195.927H417.93ZM417.969 214.063C417.969 218.999 421.421 222.41 426.069 222.41C430.523 222.41 434.176 219.6 434.176 214.102C434.176 208.527 430.523 205.758 426.069 205.758C424.982 205.735 423.902 205.935 422.895 206.346C421.888 206.758 420.977 207.372 420.218 208.15C419.458 208.928 418.867 209.854 418.48 210.87C418.093 211.887 417.919 212.972 417.969 214.058V214.063Z" fill="white"/>
<path d="M456.875 224.014V220.443C456.157 221.667 455.122 222.674 453.88 223.359C452.637 224.044 451.233 224.381 449.815 224.335C444.515 224.335 440.867 221.086 440.867 215.588V204.152H442.833V215.552C442.833 220.052 445.601 222.452 449.894 222.415C450.832 222.423 451.761 222.239 452.626 221.876C453.49 221.512 454.271 220.975 454.921 220.299C455.57 219.623 456.075 218.821 456.404 217.943C456.733 217.065 456.88 216.129 456.834 215.192V204.152H458.8V224.014H456.875Z" fill="white"/>
<path d="M477.567 207.804C476.726 207.065 475.747 206.5 474.686 206.142C473.626 205.784 472.505 205.639 471.388 205.717C468.298 205.679 465.33 206.84 465.409 209.37C465.492 212.018 468.942 212.539 471.429 212.979C474.958 213.579 479.814 214.179 479.614 218.798C479.493 223.171 474.958 224.335 471.468 224.335C467.978 224.335 464.528 223.012 462.803 220.364L464.248 219.078C465.105 220.174 466.211 221.051 467.473 221.637C468.735 222.223 470.118 222.501 471.509 222.448C473.917 222.448 477.567 221.806 477.688 218.677C477.768 215.829 474.478 215.267 471.229 214.745C467.376 214.102 463.564 213.382 463.529 209.408C463.488 205.517 467.38 203.83 471.392 203.871C474.105 203.755 476.755 204.705 478.775 206.519L477.575 207.804H477.567Z" fill="white"/>
<path d="M486.587 197.734C486.577 198.147 486.405 198.54 486.109 198.829C485.813 199.118 485.416 199.279 485.003 199.279C484.589 199.279 484.192 199.118 483.896 198.829C483.6 198.54 483.428 198.147 483.418 197.734C483.428 197.321 483.6 196.928 483.896 196.639C484.192 196.35 484.589 196.189 485.003 196.189C485.416 196.189 485.813 196.35 486.109 196.639C486.405 196.928 486.577 197.321 486.587 197.734ZM483.981 204.113V224.013H485.945V204.113H483.981Z" fill="white"/>
<path d="M493.487 204.193V207.725C494.204 206.499 495.238 205.49 496.481 204.804C497.723 204.117 499.128 203.779 500.547 203.825C505.847 203.825 509.495 207.077 509.495 212.573V224.009H507.53V212.609C507.53 208.116 504.762 205.709 500.468 205.748C499.53 205.739 498.601 205.923 497.736 206.286C496.872 206.65 496.09 207.186 495.44 207.862C494.791 208.538 494.285 209.34 493.956 210.218C493.627 211.096 493.481 212.032 493.526 212.969V224.004H491.562V204.193H493.487Z" fill="white"/>
<path d="M513.498 214.102C513.462 212.762 513.697 211.429 514.189 210.182C514.68 208.935 515.418 207.8 516.358 206.845C517.298 205.89 518.422 205.134 519.661 204.623C520.9 204.112 522.229 203.856 523.569 203.871C529.146 203.871 534.123 207.283 533.359 215.025H515.505C515.623 217.06 516.533 218.968 518.04 220.34C519.547 221.713 521.532 222.44 523.569 222.368C526.177 222.368 529.226 221.325 530.712 219.359L532.112 220.482C531.061 221.713 529.748 222.694 528.27 223.353C526.791 224.013 525.184 224.334 523.566 224.294C517.99 224.294 513.495 220.402 513.495 214.102H513.498ZM531.598 213.302C531.56 208.408 528.349 205.681 523.574 205.681C521.5 205.642 519.493 206.419 517.985 207.844C516.477 209.269 515.588 211.229 515.51 213.302H531.598Z" fill="white"/>
<path d="M552.047 207.804C551.206 207.065 550.227 206.5 549.166 206.142C548.105 205.784 546.984 205.639 545.867 205.717C542.778 205.679 539.809 206.84 539.889 209.37C539.971 212.018 543.42 212.539 545.908 212.979C549.437 213.579 554.293 214.179 554.092 218.798C553.972 223.171 549.437 224.335 545.946 224.335C542.455 224.335 539.007 223.012 537.282 220.364L538.726 219.078C539.583 220.174 540.689 221.051 541.951 221.637C543.214 222.223 544.597 222.501 545.988 222.448C548.397 222.448 552.047 221.806 552.167 218.677C552.247 215.829 548.957 215.267 545.708 214.745C541.855 214.102 538.043 213.382 538.008 209.408C537.967 205.517 541.859 203.83 545.871 203.871C548.583 203.755 551.233 204.705 553.253 206.519L552.053 207.804H552.047Z" fill="white"/>
<path d="M572.06 207.804C571.219 207.065 570.24 206.5 569.179 206.142C568.118 205.784 566.997 205.639 565.88 205.717C562.791 205.679 559.822 206.84 559.902 209.37C559.984 212.018 563.434 212.539 565.921 212.979C569.451 213.579 574.307 214.179 574.106 218.798C573.985 223.171 569.451 224.335 565.96 224.335C562.469 224.335 559.02 223.012 557.296 220.364L558.74 219.078C559.597 220.174 560.702 221.051 561.965 221.637C563.227 222.223 564.61 222.501 566.001 222.448C568.41 222.448 572.06 221.806 572.181 218.677C572.26 215.829 568.97 215.267 565.721 214.745C561.868 214.102 558.056 213.382 558.021 209.408C557.98 205.517 561.871 203.83 565.883 203.871C568.595 203.755 571.246 204.705 573.266 206.519L572.066 207.804H572.06Z" fill="white"/>
<path d="M188.143 40.742C189.71 40.7158 191.265 41.0039 192.719 41.5892C194.172 42.1746 195.493 43.0453 196.604 44.15C197.741 45.2195 198.641 46.5152 199.246 47.9537C199.851 49.3922 200.149 50.9416 200.119 52.502C200.135 54.0605 199.832 55.6057 199.227 57.0422C198.622 58.4788 197.73 59.7761 196.604 60.854C195.509 61.9874 194.193 62.8842 192.738 63.4891C191.283 64.094 189.719 64.3942 188.143 64.371C186.614 64.3691 185.102 64.0508 183.703 63.4361C182.303 62.8213 181.046 61.9235 180.01 60.799C178.893 59.7251 178.005 58.4359 177.4 57.0093C176.795 55.5828 176.486 54.0485 176.49 52.499C176.494 50.9673 176.808 49.4522 177.413 48.045C178.018 46.6379 178.901 45.3677 180.01 44.311C181.046 43.1869 182.303 42.2893 183.703 41.6746C185.103 41.0598 186.614 40.7413 188.143 40.739V40.742Z" fill="#D6007B"/>
<path d="M0 119.771L174.078 60.032L7.70801 140.326L0 119.77V119.771Z" fill="white"/>
<path d="M178.636 177.085H198.636V75.979H178.636V177.085Z" fill="white"/>
<path d="M250.949 143.485V94.002H282.93V75.979H250.949V55.097L213.364 92.024V94.002H230.949V138.842C230.949 148.001 231.371 154.21 232.214 157.471C232.859 160.249 233.915 162.915 235.345 165.382C236.621 167.436 238.217 169.273 240.072 170.823C246.15 176.173 253.769 178.847 262.93 178.846C271.741 178.917 280.418 176.682 288.098 172.363V153.679C280.111 158.442 272.527 160.824 265.346 160.823C255.746 160.823 250.946 155.044 250.946 143.487L250.949 143.485Z" fill="white"/>
<path d="M426.311 151.041C420.044 144.96 416.911 136.754 416.911 126.424C416.911 116.605 419.806 108.527 425.595 102.19C431.384 95.8533 438.784 92.6843 447.795 92.683C456.441 92.683 465.821 95.9067 475.934 102.354V81.034C470.998 78.7321 465.866 76.8748 460.6 75.484C456.003 74.4445 451.3 73.9465 446.587 74C431.641 74 419.589 78.8726 410.432 88.618C401.275 98.3633 396.695 111.186 396.693 127.085C396.693 142.84 401.4 155.407 410.815 164.785C420.23 174.163 432.85 178.852 448.675 178.852C458.749 178.763 468.725 176.865 478.127 173.247V153.459C468.164 157.926 459.335 160.161 451.641 160.164C441.02 160.164 432.577 157.123 426.311 151.041Z" fill="white"/>
<path d="M570.7 93.014C568.245 87.252 564.084 82.3806 558.776 79.056C553.343 75.662 547.046 73.9066 540.641 74C528.259 74 517.892 79.092 509.541 89.276V23.555H489.541V177.085H509.541V104.663C514.231 99.3883 518.518 95.6153 522.403 93.344C526.158 91.1061 530.449 89.928 534.82 89.935C537.574 89.8542 540.308 90.4243 542.8 91.5989C545.292 92.7735 547.472 94.5195 549.163 96.695C552.788 101.2 554.601 107.153 554.602 114.554V177.085H574.602V119.5C574.602 107.778 573.302 98.9493 570.702 93.014H570.7Z" fill="white"/>
<path d="M384.679 101.573L384.579 101.601L384.586 101.619L384.677 101.573H384.679Z" fill="white"/>
<path d="M350.412 159.944C340.96 159.944 333.248 157.086 327.276 151.371C322.523 146.752 319.369 140.734 318.276 134.197L330.293 128.297L354.677 116.317L367.891 109.825L384.586 101.625L384.579 101.607C382.734 96.6801 380.062 92.1038 376.679 88.075C368.692 78.695 357.994 74.0053 344.585 74.006C330.663 74.006 319.344 78.8237 310.628 88.459C301.912 98.0943 297.552 110.603 297.549 125.985C297.549 136.245 299.619 145.276 303.759 153.077C307.623 160.574 313.31 166.979 320.297 171.704C327.186 176.32 336.198 178.628 347.333 178.629C354.51 178.752 361.668 177.863 368.598 175.991C375.111 174.011 381.282 171.046 386.898 167.199V147.634C375.761 155.842 363.599 159.945 350.412 159.944ZM326.948 97.849C331.525 93.5263 337.404 91.3653 344.585 91.366C351.766 91.3666 357.481 93.5277 361.73 97.849C364.101 100.341 365.888 103.33 366.961 106.598L332.704 116.312L317.781 120.543L317.991 116.312C319.38 108.327 322.365 102.172 326.948 97.849Z" fill="white"/>
<path d="M64.28 177.085H84.28V107.832L64.28 117.485V177.085Z" fill="white"/>
<path d="M84.281 23.306H64.281V93.393L84.281 86.529V23.306Z" fill="white"/>
<path d="M136.263 177.085H156.263V72.385L136.263 82.038V177.085Z" fill="white"/>
<path d="M156.263 23.306H136.263V68.796L156.263 61.932V23.306Z" fill="white"/>
<path d="M581.301 36.708C577.671 36.7078 574.122 35.6312 571.104 33.6144C568.086 31.5975 565.734 28.731 564.345 25.3773C562.956 22.0236 562.592 18.3333 563.3 14.7731C564.009 11.2128 565.757 7.94253 568.324 5.37574C570.89 2.80895 574.161 1.06095 577.721 0.352729C581.281 -0.355496 584.971 0.00787139 588.325 1.39692C591.679 2.78597 594.545 5.13829 596.562 8.15644C598.579 11.1746 599.656 14.723 599.656 18.353C599.651 23.2194 597.715 27.885 594.274 31.3261C590.833 34.7672 586.167 36.7027 581.301 36.708ZM581.301 4.56202C578.573 4.56222 575.906 5.37126 573.638 6.88691C571.371 8.40256 569.603 10.5567 568.559 13.077C567.516 15.5972 567.243 18.3703 567.775 21.0457C568.307 23.721 569.621 26.1784 571.55 28.1071C573.479 30.0358 575.937 31.3492 578.612 31.8812C581.288 32.4131 584.061 32.1398 586.581 31.0958C589.101 30.0517 591.255 28.2838 592.77 26.0156C594.285 23.7474 595.094 21.0808 595.094 18.353C595.089 14.6964 593.635 11.1909 591.049 8.60554C588.463 6.02014 584.957 4.56599 581.301 4.56202Z" fill="white"/>
<path d="M575.33 11.044H582.447C583.271 10.9921 584.096 11.1051 584.875 11.3765C585.655 11.6478 586.372 12.0719 586.985 12.624C587.434 13.098 587.783 13.6571 588.012 14.2684C588.241 14.8797 588.346 15.5307 588.319 16.183V16.227C588.369 17.2859 588.069 18.3318 587.467 19.2038C586.864 20.0758 585.991 20.7255 584.983 21.053L588.783 26.614H584.783L581.447 21.631H578.756V26.614H575.33V11.044ZM582.23 18.6059C583.898 18.6059 584.855 17.717 584.855 16.406V16.362C584.855 14.894 583.831 14.138 582.163 14.138H578.763V18.608L582.23 18.6059Z" fill="white"/>
</g>
<defs>
<clipPath id="clip0_3689_780">
<rect width="599.656" height="232.281" fill="white"/>
</clipPath>
</defs>
</svg>
