<svg xmlns="http://www.w3.org/2000/svg" width="599.656" height="232.281" viewBox="0 0 599.656 232.281">
  <g id="Group_7" data-name="Group 7" transform="translate(-1556.27 -529.551)">
    <g id="Group_4" data-name="Group 4" transform="translate(967 -95.964)">
      <path id="Path_4" data-name="Path 4" d="M656.946,821.442v26.041h15.808v2.046H654.779V821.442Z" fill="#5c5d60"/>
      <path id="Path_5" data-name="Path 5" d="M675.352,839.617a9.967,9.967,0,0,1,10.072-10.231c5.578,0,10.554,3.412,9.791,11.154H677.36a7.8,7.8,0,0,0,8.064,7.343c2.609,0,5.657-1.043,7.143-3.009l1.4,1.123a10.884,10.884,0,0,1-8.546,3.812,9.723,9.723,0,0,1-10.072-10.192Zm18.1-.8h0c-.039-4.894-3.25-7.621-8.025-7.621a7.922,7.922,0,0,0-8.064,7.621Z" fill="#5c5d60"/>
      <path id="Path_6" data-name="Path 6" d="M703.99,823.729v5.979h6.743v1.645H703.99v12.076c0,2.689.563,4.575,3.653,4.575a7.354,7.354,0,0,0,3.048-.8l.681,1.6a8.641,8.641,0,0,1-3.729,1c-4.213,0-5.578-2.488-5.578-6.38V831.353h-4.213v-1.645h4.213V823.93l1.925-.2Z" fill="#5c5d60"/>
      <path id="Path_7" data-name="Path 7" d="M717.747,821.282v10.272h-1.765V821.282Z" fill="#5c5d60"/>
      <path id="Path_8" data-name="Path 8" d="M737.244,833.319a8.475,8.475,0,0,0-6.18-2.087c-3.089-.038-6.058,1.123-5.978,3.653.082,2.648,3.531,3.169,6.019,3.609,3.53.6,8.385,1.2,8.185,5.819-.121,4.373-4.655,5.537-8.146,5.537s-6.94-1.323-8.664-3.971l1.444-1.286a8.793,8.793,0,0,0,7.261,3.37c2.409,0,6.059-.642,6.18-3.771.079-2.848-3.211-3.41-6.46-3.932-3.853-.643-7.664-1.363-7.7-5.337-.041-3.891,3.85-5.578,7.862-5.537a10.386,10.386,0,0,1,7.383,2.648l-1.2,1.285Z" fill="#5c5d60"/>
      <path id="Path_9" data-name="Path 9" d="M773.261,826.86c-2.046-3.29-5.336-3.773-8.508-3.812-3.288,0-8.506,1.2-8.506,5.7,0,3.573,3.853,4.413,8.588,5.3,5.416,1.043,11.032,2.005,11.032,8.064-.038,6.341-6.418,7.865-11.114,7.865-4.372,0-9.349-1.807-11.513-6.1l1.926-.963c1.724,3.41,6.137,5.1,9.587,5.1s8.948-.964,8.948-5.937c.041-4.213-4.614-5.136-9.228-6.02-5.136-1-10.392-2.047-10.392-7.221-.119-5.94,6.058-7.786,10.672-7.786,4.013,0,7.5.643,10.271,4.776l-1.763,1.044Z" fill="#5c5d60"/>
      <path id="Path_10" data-name="Path 10" d="M782.679,823.249a1.585,1.585,0,0,1-3.169,0,1.585,1.585,0,0,1,3.169,0Zm-2.606,6.379h0v19.9h1.964v-19.9Z" fill="#5c5d60"/>
      <path id="Path_11" data-name="Path 11" d="M817.023,849.529V837.653a6.131,6.131,0,0,0-6.341-6.5,6.261,6.261,0,0,0-6.38,6.619v11.757h-1.964V837.772a6.227,6.227,0,0,0-6.38-6.578c-3.773,0-6.341,2.768-6.341,6.578v11.757h-1.964V829.708H789.5l.038,3.29a6.98,6.98,0,0,1,6.46-3.691c3.01,0,6.179,1.365,7.343,4.894a7.66,7.66,0,0,1,7.342-4.894,7.973,7.973,0,0,1,8.3,8.346v11.876Z" fill="#5c5d60"/>
      <path id="Path_12" data-name="Path 12" d="M824.11,857.8V829.708h1.925V834.4a9.449,9.449,0,0,1,8.586-4.975c5.377.2,9.628,3.813,9.628,10.19,0,6.663-4.493,10.272-10.071,10.272a8.945,8.945,0,0,1-8.184-4.933V857.8Zm18.175-18.179h0c0-5.575-3.611-8.3-8.107-8.3-4.614,0-8.022,3.491-8.022,8.346A7.976,7.976,0,0,0,834.178,848c4.5,0,8.107-2.809,8.107-8.387Z" fill="#5c5d60"/>
      <path id="Path_13" data-name="Path 13" d="M851.02,821.442v28.087h-1.964V821.442Z" fill="#5c5d60"/>
      <path id="Path_14" data-name="Path 14" d="M859.122,823.249a1.585,1.585,0,0,1-3.169,0,1.585,1.585,0,0,1,3.169,0Zm-2.607,6.379h0v19.9h1.964v-19.9Z" fill="#5c5d60"/>
      <path id="Path_15" data-name="Path 15" d="M866.142,849.529V831.595h-4.054v-1.727h4.054V828.1c0-3.933,1.563-6.781,5.937-6.781a6.494,6.494,0,0,1,3.931,1.363l-.962,1.444a5.445,5.445,0,0,0-3.048-1c-2.488,0-3.933,1.524-3.933,4.976v1.764h6.54v1.727h-6.54v17.934Z" fill="#5c5d60"/>
      <path id="Path_16" data-name="Path 16" d="M896.147,829.708,884.068,857.8h-2.085l3.65-8.508-7.945-19.58h2.129l4.614,11.716,2.326,5.737,2.288-5.778,4.974-11.675Z" fill="#5c5d60"/>
      <path id="Path_17" data-name="Path 17" d="M927.912,829.708,915.834,857.8h-2.085l3.65-8.508-7.945-19.58h2.129l4.613,11.716,2.326,5.737,2.288-5.778,4.974-11.675Z" fill="#5c5d60"/>
      <path id="Path_18" data-name="Path 18" d="M930.792,839.658c0-6.3,4.495-10.313,10.071-10.313s10.07,4.013,10.07,10.313a10.071,10.071,0,1,1-20.141,0Zm18.216,0h0c0-5.135-3.65-8.464-8.145-8.464s-8.144,3.329-8.144,8.464a8.145,8.145,0,1,0,16.289,0Z" fill="#5c5d60"/>
      <path id="Path_19" data-name="Path 19" d="M971.427,849.529v-3.571a7.886,7.886,0,0,1-7.06,3.892c-5.3,0-8.948-3.249-8.948-8.747V829.667h1.966v11.4c0,4.5,2.769,6.9,7.061,6.863a6.889,6.889,0,0,0,6.94-7.223V829.667h1.966v19.862Z" fill="#5c5d60"/>
      <path id="Path_20" data-name="Path 20" d="M980.365,829.708l.08,3.532a6.972,6.972,0,0,1,6.58-3.733,7.714,7.714,0,0,1,4.251,1.165l-.881,1.6a6.369,6.369,0,0,0-3.37-.923,6.587,6.587,0,0,0-6.542,6.622v11.554h-1.964V829.708Z" fill="#5c5d60"/>
      <path id="Path_21" data-name="Path 21" d="M1007.2,821.442v12.6c1.6-3.211,4.815-4.656,8.226-4.656,5.537,0,9.95,3.691,9.95,10.231,0,6.58-4.375,10.233-9.911,10.233a9.334,9.334,0,0,1-8.265-4.694v4.373h-1.925V821.442Zm.039,18.136h0c0,4.936,3.452,8.347,8.1,8.347,4.454,0,8.107-2.81,8.107-8.308,0-5.575-3.653-8.344-8.107-8.344a7.938,7.938,0,0,0-8.1,8.3Z" fill="#5c5d60"/>
      <path id="Path_22" data-name="Path 22" d="M1046.145,849.529v-3.571a7.886,7.886,0,0,1-7.06,3.892c-5.3,0-8.948-3.249-8.948-8.747V829.667h1.966v11.4c0,4.5,2.768,6.9,7.061,6.863a6.889,6.889,0,0,0,6.94-7.223V829.667h1.966v19.862Z" fill="#5c5d60"/>
      <path id="Path_23" data-name="Path 23" d="M1066.837,833.319a8.473,8.473,0,0,0-6.179-2.087c-3.09-.038-6.058,1.123-5.979,3.653.083,2.648,3.533,3.169,6.02,3.609,3.529.6,8.385,1.2,8.185,5.819-.121,4.373-4.656,5.537-8.146,5.537s-6.94-1.323-8.665-3.971l1.445-1.286a8.793,8.793,0,0,0,7.261,3.37c2.408,0,6.058-.642,6.179-3.771.08-2.848-3.21-3.41-6.459-3.932-3.853-.643-7.665-1.363-7.7-5.337-.041-3.891,3.851-5.578,7.863-5.537a10.388,10.388,0,0,1,7.383,2.648l-1.2,1.285Z" fill="#5c5d60"/>
      <path id="Path_24" data-name="Path 24" d="M1075.857,823.249a1.585,1.585,0,0,1-3.169,0,1.585,1.585,0,0,1,3.169,0Zm-2.606,6.379h0v19.9h1.964v-19.9Z" fill="#5c5d60"/>
      <path id="Path_25" data-name="Path 25" d="M1082.757,829.708v3.532a7.885,7.885,0,0,1,7.06-3.9c5.3,0,8.948,3.252,8.948,8.748v11.436H1096.8v-11.4c0-4.493-2.768-6.9-7.062-6.861a6.888,6.888,0,0,0-6.942,7.221v11.035h-1.964V829.708Z" fill="#5c5d60"/>
      <path id="Path_26" data-name="Path 26" d="M1102.768,839.617a9.966,9.966,0,0,1,10.071-10.231c5.577,0,10.554,3.412,9.79,11.154h-17.854a7.8,7.8,0,0,0,8.064,7.343c2.608,0,5.657-1.043,7.143-3.009l1.4,1.123a10.885,10.885,0,0,1-8.546,3.812c-5.576,0-10.071-3.892-10.071-10.192Zm18.1-.8h0c-.038-4.894-3.249-7.621-8.024-7.621a7.921,7.921,0,0,0-8.064,7.621Z" fill="#5c5d60"/>
      <path id="Path_27" data-name="Path 27" d="M1141.317,833.319a8.476,8.476,0,0,0-6.18-2.087c-3.089-.038-6.058,1.123-5.978,3.653.082,2.648,3.531,3.169,6.019,3.609,3.529.6,8.385,1.2,8.184,5.819-.12,4.373-4.655,5.537-8.146,5.537s-6.939-1.323-8.664-3.971l1.444-1.286a8.794,8.794,0,0,0,7.262,3.37c2.409,0,6.059-.642,6.179-3.771.08-2.848-3.21-3.41-6.459-3.932-3.853-.643-7.665-1.363-7.7-5.337-.041-3.891,3.851-5.578,7.863-5.537a10.384,10.384,0,0,1,7.382,2.648l-1.2,1.285Z" fill="#5c5d60"/>
      <path id="Path_28" data-name="Path 28" d="M1161.33,833.319a8.475,8.475,0,0,0-6.18-2.087c-3.089-.038-6.058,1.123-5.978,3.653.082,2.648,3.532,3.169,6.019,3.609,3.53.6,8.386,1.2,8.185,5.819-.121,4.373-4.655,5.537-8.146,5.537s-6.94-1.323-8.664-3.971l1.444-1.286a8.793,8.793,0,0,0,7.261,3.37c2.409,0,6.059-.642,6.18-3.771.079-2.848-3.211-3.41-6.46-3.932-3.853-.643-7.665-1.363-7.7-5.337-.041-3.891,3.85-5.578,7.862-5.537a10.387,10.387,0,0,1,7.383,2.648l-1.2,1.285Z" fill="#5c5d60"/>
    </g>
    <path id="Path_607" data-name="Path 607" d="M777.413,666.257a11.722,11.722,0,0,1,8.461,3.408,11.176,11.176,0,0,1,3.515,8.352,11.4,11.4,0,0,1-3.515,8.352,11.529,11.529,0,0,1-8.461,3.517,11.075,11.075,0,0,1-8.133-3.572,11.469,11.469,0,0,1-3.52-8.3,11.351,11.351,0,0,1,3.52-8.188,11.083,11.083,0,0,1,8.133-3.572Z" transform="translate(967 -95.964)" fill="#d6007b"/>
    <path id="Path_608" data-name="Path 608" d="M589.27,745.286l174.078-59.739-166.37,80.294-7.708-20.556Z" transform="translate(967 -95.964)" fill="#004f8e"/>
    <path id="Path_609" data-name="Path 609" d="M767.906,802.6h20V701.494h-20V802.6Z" transform="translate(967 -95.964)" fill="#004f8e"/>
    <path id="Path_610" data-name="Path 610" d="M840.219,769V719.517H872.2V701.494H840.219V680.612l-37.585,36.927v1.978h17.585v44.84q0,13.738,1.265,18.629a28.735,28.735,0,0,0,3.131,7.911,22.705,22.705,0,0,0,4.727,5.441q9.117,8.025,22.858,8.023a50.521,50.521,0,0,0,25.168-6.483V779.194q-11.98,7.145-22.752,7.144-14.4,0-14.4-17.336Z" transform="translate(967 -95.964)" fill="#004f8e"/>
    <path id="Path_611" data-name="Path 611" d="M1015.581,776.556q-9.4-9.122-9.4-24.617,0-14.729,8.684-24.234t22.2-9.507q12.969,0,28.139,9.671v-21.32a91.673,91.673,0,0,0-15.334-5.55,60.428,60.428,0,0,0-14.013-1.484q-22.419,0-36.155,14.618T985.963,752.6q0,23.633,14.122,37.7t37.86,14.067a84.068,84.068,0,0,0,29.452-5.605V778.974q-14.945,6.7-26.486,6.705-15.931,0-25.33-9.123Z" transform="translate(967 -95.964)" fill="#004f8e"/>
    <path id="Path_612" data-name="Path 612" d="M1159.97,718.529a30.64,30.64,0,0,0-11.924-13.958,33.313,33.313,0,0,0-18.135-5.056q-18.573,0-31.1,15.276V649.07h-20V802.6h20V730.178q7.035-7.912,12.862-11.319a24.178,24.178,0,0,1,12.417-3.409,17.514,17.514,0,0,1,14.343,6.76q5.438,6.758,5.439,17.859V802.6h20V745.015q0-17.583-3.9-26.486Z" transform="translate(967 -95.964)" fill="#004f8e"/>
    <path id="Path_613" data-name="Path 613" d="M973.949,727.088l-.1.028.007.018.091-.046Z" transform="translate(967 -95.964)" fill="#004f8e"/>
    <path id="Path_614" data-name="Path 614" d="M939.682,785.459q-14.178,0-23.136-8.573a31.1,31.1,0,0,1-9-17.174l12.017-5.9,24.384-11.98,13.214-6.492,16.695-8.2-.007-.018a46.276,46.276,0,0,0-7.9-13.532q-11.98-14.07-32.094-14.069-20.883,0-33.957,14.453T886.819,751.5q0,15.39,6.21,27.092a50.321,50.321,0,0,0,16.538,18.627q10.333,6.924,27.036,6.925a76.508,76.508,0,0,0,21.265-2.638,66.737,66.737,0,0,0,18.3-8.792V773.149q-16.706,12.312-36.486,12.31Zm-23.464-62.095h0q6.865-6.484,17.637-6.483T951,723.364a23.189,23.189,0,0,1,5.231,8.749l-34.257,9.714-14.923,4.231.21-4.231q2.083-11.978,8.958-18.463Z" transform="translate(967 -95.964)" fill="#004f8e"/>
    <path id="Path_615" data-name="Path 615" d="M653.55,802.6h20V733.347l-20,9.653v59.6Z" transform="translate(967 -95.964)" fill="#004f8e"/>
    <path id="Path_616" data-name="Path 616" d="M673.551,648.821h-20v70.087l20-6.864V648.821Z" transform="translate(967 -95.964)" fill="#004f8e"/>
    <path id="Path_617" data-name="Path 617" d="M725.533,802.6h20v-104.7l-20,9.653V802.6Z" transform="translate(967 -95.964)" fill="#004f8e"/>
    <path id="Path_618" data-name="Path 618" d="M745.533,648.821h-20v45.49l20-6.864V648.821Z" transform="translate(967 -95.964)" fill="#004f8e"/>
    <g id="Group_5" data-name="Group 5" transform="translate(967 -95.964)">
      <path id="Path_41" data-name="Path 41" d="M1170.571,662.223a18.354,18.354,0,1,1,18.355-18.355A18.375,18.375,0,0,1,1170.571,662.223Zm0-32.146a13.792,13.792,0,1,0,13.793,13.791A13.808,13.808,0,0,0,1170.571,630.077Z" fill="#004f8e"/>
    </g>
    <g id="Group_6" data-name="Group 6" transform="translate(967 -95.964)">
      <path id="Path_42" data-name="Path 42" d="M1164.6,636.559h7.117a6.2,6.2,0,0,1,4.538,1.58,4.886,4.886,0,0,1,1.334,3.559v.044a4.835,4.835,0,0,1-3.336,4.826l3.8,5.561h-4l-3.336-4.983h-2.691v4.983H1164.6Zm6.9,7.562c1.668,0,2.625-.889,2.625-2.2v-.044c0-1.468-1.024-2.224-2.692-2.224h-3.4v4.47Z" fill="#004f8e"/>
    </g>
  </g>
</svg>
